Coordinates
version=1
nRows=5
nColumns=40
inDegrees=yes

Units are S.I. units (second, meters, Newtons, ...)
Angles are in degrees.

endheader
time	pelvis_tilt	pelvis_list	pelvis_rotation	pelvis_tx	pelvis_ty	pelvis_tz	hip_flexion_r	hip_adduction_r	hip_rotation_r	knee_angle_r	knee_angle_r_beta	ankle_angle_r	subtalar_angle_r	mtp_angle_r	hip_flexion_l	hip_adduction_l	hip_rotation_l	knee_angle_l	knee_angle_l_beta	ankle_angle_l	subtalar_angle_l	mtp_angle_l	lumbar_extension	lumbar_bending	lumbar_rotation	arm_flex_r	arm_add_r	arm_rot_r	elbow_flex_r	pro_sup_r	wrist_flex_r	wrist_dev_r	arm_flex_l	arm_add_l	arm_rot_l	elbow_flex_l	pro_sup_l	wrist_flex_l	wrist_dev_l
     47.17250000	     -6.47563142	     -5.88665005	     -5.26474721	      1.06207895	      0.90962999	      0.41659471	     23.57029166	     -5.12052318	      2.00819759	     56.83107580	     56.83107580	      7.49523177	     -7.37813421	     -6.28503187	     24.20660457	     -7.15710070	     -4.15087145	     35.96993449	     35.96993449	     19.92753118	    -17.59536723	      8.21152334	    -10.53518383	      8.39335921	      1.84899403	      2.30387884	    -11.14133965	    -13.69386690	     22.67033787	     46.83306645	      0.00000000	      0.00000000	     28.81331817	    -21.28654346	      4.03957890	     47.98155095	     46.54234759	      0.00000000	      0.00000000
     47.19300000	     -6.48466368	     -6.02120125	     -5.90485703	      1.06123603	      0.91137960	      0.41653441	     25.25878482	     -4.42242834	      2.76380536	     58.43124017	     58.43124017	      8.04548269	     -7.49578248	     -2.32451793	     23.42163244	     -7.43034367	     -4.73992656	     35.18975500	     35.18975500	     19.77106000	    -17.58136152	      7.85732313	    -10.74109710	      8.59492070	      1.66214709	     -1.46486626	    -11.01090921	    -13.31542858	     23.17084878	     46.75090698	      0.00000000	      0.00000000	     29.70808143	    -21.92219343	      2.17325355	     51.44093003	     46.76586759	      0.00000000	      0.00000000
     47.21350000	     -6.57480840	     -6.02495720	     -6.62883276	      1.06040722	      0.91369797	      0.41708228	     26.73796619	     -3.78870507	      3.42983947	     58.96461159	     58.96461159	      7.68148835	     -8.06721229	     -1.99055894	     22.51091505	     -7.58581101	     -5.43137384	     34.04735303	     34.04735303	     19.65903817	    -17.50067948	      8.09397840	    -10.69477477	      8.60516606	      1.52224263	     -4.39520301	    -10.82386555	    -13.26368056	     22.17608987	     46.76330580	      0.00000000	      0.00000000	     31.25359883	    -22.61893816	      1.56028174	     52.85808557	     46.85162259	      0.00000000	      0.00000000
     47.23400000	     -6.72608745	     -6.14635187	     -7.36315718	      1.05962682	      0.91650008	      0.41820101	     27.96924190	     -3.08092344	      3.74268830	     58.56222488	     58.56222488	      7.65000392	     -8.22840461	     -1.85029008	     21.53954169	     -7.88450729	     -6.10812192	     32.69949292	     32.69949292	     19.43803922	    -17.34170089	      8.38229713	    -10.54283680	      8.73327801	      1.25096437	     -7.08530607	    -10.70543496	    -13.29966586	     21.43473144	     46.77316403	      0.00000000	      0.00000000	     32.63906577	    -23.47980283	      0.93331991	     54.17243689	     46.93443891	      0.00000000	      0.00000000
     47.25450000	     -6.72739704	     -6.12543284	     -8.22084877	      1.05896669	      0.91989766	      0.41979108	     28.77629069	     -2.41299937	      4.21474938	     57.23695306	     57.23695306	      7.83442875	     -8.37063067	     -1.87251057	     20.14634502	     -8.04199839	     -7.07445724	     30.92205544	     30.92205544	     19.05585303	    -17.16882413	      8.47884221	    -10.68330728	      8.63909658	      1.74869396	     -9.95533417	    -10.55924050	    -13.35943193	     21.29034892	     46.75560591	      0.00000000	      0.00000000	     33.92250709	    -23.60573732	     -0.05890947	     57.01889840	     47.06636737	      0.00000000	      0.00000000
